<svg width="19" height="18" viewBox="0 0 19 18" fill="none" xmlns="http://www.w3.org/2000/svg">
<path fill-rule="evenodd" clip-rule="evenodd" d="M8.74963 17.426C8.84247 17.5004 8.91603 17.558 8.96712 17.5975L9.499 17.9965L10.0309 17.5975C10.082 17.558 10.1555 17.5004 10.2484 17.426C10.434 17.2773 10.697 17.0608 11.0116 16.7861C11.6399 16.2375 12.4794 15.4522 13.3213 14.506C14.9702 12.6529 16.773 10.024 16.773 7.274C16.773 3.25668 13.5163 0 9.499 0C5.48168 0 2.225 3.25668 2.225 7.274C2.225 10.024 4.02782 12.6529 5.67669 14.506C6.51856 15.4522 7.3581 16.2375 7.98635 16.7861C8.30101 17.0608 8.56403 17.2773 8.74963 17.426ZM9.499 1.5C6.31011 1.5 3.725 4.08511 3.725 7.274C3.725 9.43188 5.18417 11.696 6.7973 13.5089C7.58643 14.3958 8.3779 15.1367 8.97289 15.6561C9.17391 15.8317 9.35188 15.9814 9.499 16.1023C9.64611 15.9814 9.82409 15.8317 10.0251 15.6561C10.6201 15.1367 11.4116 14.3958 12.2007 13.5089C13.8138 11.696 15.273 9.43188 15.273 7.274C15.273 4.08511 12.6879 1.5 9.499 1.5Z" fill="#222222"/>
<path fill-rule="evenodd" clip-rule="evenodd" d="M9.49901 4.762C8.11167 4.762 6.98701 5.88666 6.98701 7.274C6.98701 8.66134 8.11167 9.786 9.49901 9.786C10.8863 9.786 12.011 8.66134 12.011 7.274C12.011 5.88666 10.8863 4.762 9.49901 4.762ZM5.48701 7.274C5.48701 5.05823 7.28324 3.262 9.49901 3.262C11.7148 3.262 13.511 5.05823 13.511 7.274C13.511 9.48976 11.7148 11.286 9.49901 11.286C7.28324 11.286 5.48701 9.48976 5.48701 7.274Z" fill="#222222"/>
</svg>
