<svg width="30" height="31" viewBox="0 0 30 31" fill="none" xmlns="http://www.w3.org/2000/svg">
<path fill-rule="evenodd" clip-rule="evenodd" d="M6.09126 5.47032L8.32414 7.7032C9.93067 6.32652 11.9689 5.43704 14.2074 5.26597V2.10826C11.0996 2.28924 8.27658 3.52768 6.09126 5.47032ZM15.7926 2.10826V5.26597C18.0311 5.43704 20.0693 6.32652 21.6759 7.7032L23.9087 5.47032C21.7234 3.52768 18.9004 2.28924 15.7926 2.10826ZM25.0297 6.59126L22.7968 8.82414C24.1735 10.4307 25.063 12.4689 25.234 14.7074H28.3917C28.2108 11.5996 26.9723 8.77658 25.0297 6.59126ZM28.3917 16.2926H25.234C25.063 18.5311 24.1735 20.5693 22.7968 22.1759L25.0297 24.4087C26.9723 22.2234 28.2108 19.4004 28.3917 16.2926ZM23.9087 25.5297L21.6759 23.2968C20.0693 24.6735 18.0311 25.563 15.7926 25.734V28.8917C18.9004 28.7108 21.7234 27.4723 23.9087 25.5297ZM14.2074 28.8917V25.734C11.9689 25.563 9.93067 24.6735 8.32414 23.2968L6.09126 25.5297C8.27658 27.4723 11.0996 28.7108 14.2074 28.8917ZM4.97032 24.4087L7.2032 22.1759C5.82652 20.5693 4.93704 18.5311 4.76597 16.2926H1.60826C1.78924 19.4004 3.02768 22.2234 4.97032 24.4087ZM1.60826 14.7074H4.76597C4.93704 12.4689 5.82652 10.4307 7.2032 8.82414L4.97032 6.59126C3.02768 8.77658 1.78924 11.5996 1.60826 14.7074ZM4.3934 4.8934C7.107 2.1798 10.8581 0.5 15 0.5C19.1419 0.5 22.893 2.1798 25.6066 4.8934C28.3202 7.607 30 11.3581 30 15.5C30 19.6419 28.3202 23.393 25.6066 26.1066C22.893 28.8202 19.1419 30.5 15 30.5C10.8581 30.5 7.107 28.8202 4.3934 26.1066C1.6798 23.393 0 19.6419 0 15.5C0 11.3581 1.6798 7.607 4.3934 4.8934ZM15 6.82104C12.6032 6.82104 10.4345 7.79159 8.86305 9.36305C7.29159 10.9345 6.32104 13.1032 6.32104 15.5C6.32104 17.8968 7.29159 20.0655 8.86305 21.637C10.4345 23.2084 12.6032 24.179 15 24.179C17.3968 24.179 19.5655 23.2084 21.137 21.637C22.7084 20.0655 23.679 17.8968 23.679 15.5C23.679 13.1032 22.7084 10.9345 21.137 9.36305C19.5655 7.79159 17.3968 6.82104 15 6.82104ZM13.8983 9.94698V13.3291H12.3131V12.6138C11.5397 13.3341 11.0568 14.3611 11.0568 15.5C11.0568 16.6389 11.5397 17.6659 12.3131 18.3862V17.6709H13.8983V21.053L12.7883 20.5681C10.8375 19.7157 9.47159 17.7682 9.47159 15.5C9.47159 13.2318 10.8375 11.2843 12.7883 10.4319L13.8983 9.94698ZM16.1017 9.94698L17.2117 10.4319C19.1625 11.2843 20.5284 13.2318 20.5284 15.5C20.5284 17.7682 19.1625 19.7157 17.2117 20.5681L16.1017 21.053L16.1017 17.6709H17.6869V18.3862C18.4603 17.6659 18.9432 16.6389 18.9432 15.5C18.9432 14.3611 18.4603 13.3341 17.6869 12.6138V13.3291H16.1017V9.94698Z" fill="#222222"/>
</svg>
